<svg width="16" height="17" viewBox="0 0 16 17" fill="none" xmlns="http://www.w3.org/2000/svg">
<path fill-rule="evenodd" clip-rule="evenodd" d="M2.82617 7.42744C2.83578 4.60038 5.13535 2.31638 7.9624 2.32596C10.7895 2.33559 13.0735 4.63516 13.0639 7.46222V7.52019C13.0291 9.35787 12.003 11.0564 10.745 12.384C10.0256 13.131 9.22218 13.7924 8.35081 14.355C8.11781 14.5565 7.77221 14.5565 7.53922 14.355C6.24022 13.5095 5.10013 12.442 4.1711 11.2014C3.34307 10.1195 2.87295 8.80639 2.82617 7.44483V7.42744Z" stroke="white" stroke-width="1.5" stroke-linecap="round" stroke-linejoin="round"/>
<path d="M7.94487 9.16659C8.85098 9.16659 9.58553 8.43203 9.58553 7.52592C9.58553 6.6198 8.85098 5.88525 7.94487 5.88525C7.03875 5.88525 6.3042 6.6198 6.3042 7.52592C6.3042 8.43203 7.03875 9.16659 7.94487 9.16659Z" stroke="white" stroke-width="1.5" stroke-linecap="round" stroke-linejoin="round"/>
</svg>
